HIERARCHY
ROOT Hips
{
	OFFSET 0.000000 0.000000 0.000000
	CHANNELS 6 Xposition Yposition Zposition Zrotation Xrotation Yrotation
	JOINT RightUpLeg
	{
		OFFSET -10.795800 0.000000 0.000000
		CHANNELS 3 Zrotation Xrotation Yrotation
		JOINT RightLeg
		{
			OFFSET 0.000000 -39.557900 0.000000
			CHANNELS 3 Zrotation Xrotation Yrotation
			JOINT RightFoot
			{
				OFFSET 0.000000 -40.613400 0.000000
				CHANNELS 3 Zrotation Xrotation Yrotation
				JOINT RightToe
				{
					OFFSET 0.000000 -1.003500 12.392200
					CHANNELS 3 Zrotation Xrotation Yrotation
					JOINT RightToeEnd
					{
						OFFSET 0.000000 1.088300 5.767000
						CHANNELS 3 Zrotation Xrotation Yrotation
						End Site
						{
						    OFFSET 0.000000 0.927200 4.913300
						}
					}
				}
			}
		}
	}
	JOINT LeftUpLeg
	{
		OFFSET 10.795800 0.000000 0.000000
		CHANNELS 3 Zrotation Xrotation Yrotation
		JOINT LeftLeg
		{
			OFFSET 0.000000 -39.557900 0.000000
			CHANNELS 3 Zrotation Xrotation Yrotation
			JOINT LeftFoot
			{
				OFFSET 0.000000 -40.613400 0.000000
				CHANNELS 3 Zrotation Xrotation Yrotation
				JOINT LeftToe
				{
					OFFSET 0.000000 -1.003500 12.392200
					CHANNELS 3 Zrotation Xrotation Yrotation
					JOINT LeftToeEnd
					{
						OFFSET 0.000000 1.088300 5.767000
						CHANNELS 3 Zrotation Xrotation Yrotation
						End Site
						{
						    OFFSET 0.000000 0.927200 4.913300
						}
					}
				}
			}
		}
	}
	JOINT Spine
	{
		OFFSET 0.000000 15.108100 0.000000
		CHANNELS 3 Zrotation Xrotation Yrotation
		JOINT Spine1
		{
			OFFSET 0.000000 12.828000 0.000000
			CHANNELS 3 Zrotation Xrotation Yrotation
			JOINT Spine2
			{
				OFFSET 0.000000 11.155500 0.000000
				CHANNELS 3 Zrotation Xrotation Yrotation
				JOINT LeftShoulder
				{
					OFFSET 2.000000 11.155500 0.000000
					CHANNELS 3 Zrotation Xrotation Yrotation
					JOINT LeftArm
					{
						OFFSET 15.139800 0.000000 0.000000
						CHANNELS 3 Zrotation Xrotation Yrotation
						JOINT LeftForeArm
						{
							OFFSET 0.000000 -26.627300 0.000000
							CHANNELS 3 Zrotation Xrotation Yrotation
							JOINT LeftHand
							{
								OFFSET 0.000000 -24.932400 0.000000
								CHANNELS 3 Zrotation Xrotation Yrotation
								JOINT LeftFinger0
								{
									OFFSET 0.000000 -8.640100 0.000000
									CHANNELS 3 Zrotation Xrotation Yrotation
									End Site
									{
									    OFFSET 0.000000 -5.000000 0.000000
									}
								}
							}
						}
					}
				}
				JOINT RightShoulder
				{
					OFFSET -2.000000 11.155500 0.000000
					CHANNELS 3 Zrotation Xrotation Yrotation
					JOINT RightArm
					{
						OFFSET -15.139800 0.000000 0.000000
						CHANNELS 3 Zrotation Xrotation Yrotation
						JOINT RightForeArm
						{
							OFFSET 0.000000 -26.627300 0.000000
							CHANNELS 3 Zrotation Xrotation Yrotation
							JOINT RightHand
							{
								OFFSET 0.000000 -24.932400 0.000000
								CHANNELS 3 Zrotation Xrotation Yrotation
								JOINT RightFinger0
								{
									OFFSET 0.000000 -8.640100 0.000000
									CHANNELS 3 Zrotation Xrotation Yrotation
									End Site
									{
									    OFFSET 0.000000 -5.000000 0.000000
									}
								}
							}
						}
					}
				}
				JOINT Neck
				{
					OFFSET 0.000000 11.155500 0.000000
					CHANNELS 3 Zrotation Xrotation Yrotation
					JOINT Head
					{
						OFFSET 0.000000 10.940000 0.000000
						CHANNELS 3 Zrotation Xrotation Yrotation
						JOINT HeadTip
						{
							OFFSET 0.000000 10.000000 0.000000
							CHANNELS 3 Zrotation Xrotation Yrotation
							End Site
							{
							    OFFSET 0.000000 5.000000 0.000000
							}
						}
					}
				}
			}
		}
	}
}
MOTION
Frames:	14
Frame Time:	0.033332
-4.540300 80.192500 -81.266300 -12.986367 -5.881714 -94.065040 -7.178477 -25.131849 0.035771 -0.000000 64.933775 -0.000000 11.687694 -0.814052 -15.045452 0.000000 -5.643457 -0.000000 -0.000000 0.000000 -0.000000 6.100610 -13.713070 10.177894 -0.000000 34.835171 -0.000000 -14.041586 9.268163 19.915164 -0.000000 -7.118138 -0.000000 -0.000000 0.000000 -0.000000 -3.145602 14.724564 -14.249583 -0.000000 8.289790 0.000000 -0.000000 -0.000000 0.000000 7.642860 -0.000000 -3.100219 52.306657 -35.707729 4.715751 -180.000037 -85.400054 -180.000037 16.145521 -6.147972 -49.949065 0.000000 0.000000 -0.000000 -12.182583 -0.000000 -11.346691 -43.845572 4.806513 -30.771776 -179.999833 -53.408261 -179.999630 -18.823688 -13.405371 -5.228992 0.000000 0.000000 -0.000000 -0.000000 -0.000000 0.000000 3.392151 -6.492503 45.028961 -0.000000 -0.000000 -0.000000 
-3.807500 79.802900 -82.027900 -12.727861 -6.169683 -93.803062 -6.787830 -21.128396 1.978385 0.000000 65.308568 -0.000000 14.552774 0.895813 -15.287792 -0.000000 -12.041857 0.000000 -0.000000 -0.000000 -0.000000 6.628439 -14.723410 10.569512 -0.000000 35.154202 0.000000 -14.317728 9.839328 19.382975 -0.000000 -7.083680 -0.000000 -0.000000 -0.000000 -0.000000 -3.261178 14.465751 -13.301023 -0.000000 8.007694 -0.000000 0.000000 0.000000 -0.000000 7.006327 0.000000 -3.168469 51.528476 -33.867500 2.920024 -180.000037 -84.254153 -180.000037 16.185038 -6.092352 -47.211682 -0.000000 0.000000 0.000000 -12.349151 0.000000 -11.398011 -44.428313 4.525288 -31.345475 -179.999831 -53.641129 -179.999629 -19.013491 -13.236284 -6.054691 0.000000 0.000000 0.000000 0.000000 0.000000 -0.000000 3.037038 -6.493340 43.530174 -0.000000 0.000000 0.000000 
-2.989800 79.400700 -83.124300 -12.495078 -6.501508 -93.715381 -6.414295 -15.441077 2.821172 -0.000000 57.198400 0.000000 13.639186 -10.749428 -13.099102 -0.000000 -4.440246 -0.000000 -0.000000 -0.000000 -0.000000 7.309391 -15.548962 10.951701 -0.000000 35.129822 0.000000 -14.943856 10.634412 18.961849 -0.000000 -7.160143 -0.000000 -0.000000 0.000000 -0.000000 -3.807517 14.161819 -11.951603 -0.000000 7.806512 0.000000 -0.000000 -0.000000 -0.000000 6.422526 -0.000000 -3.442668 51.608568 -32.048505 1.193792 -180.000037 -82.737802 180.000037 16.085597 -6.153493 -45.469754 0.000000 0.000000 0.000000 -12.384063 -0.000000 -11.394724 -44.174083 4.217915 -31.531860 -179.999831 -53.665690 -179.999629 -18.983675 -13.469396 -5.496749 0.000000 0.000000 0.000000 -0.000000 -0.000000 -0.000000 2.895646 -6.361766 41.858457 -0.000000 0.000000 -0.000000 
-1.808000 79.416300 -84.469300 -12.073559 -5.871788 -93.959589 -3.922621 -13.323225 3.542747 -0.000000 51.731464 0.000000 8.606857 -14.513258 -16.513079 0.000000 -0.985216 -0.000000 0.000000 0.000000 -0.000000 9.032505 -15.966905 11.614722 -0.000000 33.885808 -0.000000 -15.694531 12.211706 18.762158 -0.000000 -7.618143 -0.000000 -0.000000 -0.000000 -0.000000 -3.266298 14.486826 -10.375756 -0.000000 7.084217 -0.000000 -0.000000 0.000000 0.000000 5.327704 0.000000 -3.522143 51.781419 -30.714503 -0.639228 -180.000037 -81.405205 -180.000037 15.419154 -6.711075 -44.994810 0.000000 0.000000 -0.000000 -12.133725 -0.000000 -11.460818 -43.223582 3.718489 -31.334103 -179.999832 -53.530166 -179.999630 -18.941906 -13.562615 -5.169241 -0.000000 -0.000000 -0.000000 -0.000000 0.000000 0.000000 2.539326 -6.478552 40.329821 0.000000 0.000000 -0.000000 
-0.366200 80.040600 -85.494500 -11.198347 -5.558759 -94.301501 -2.044994 -15.321571 5.076534 -0.000000 51.112936 -0.000000 8.570572 -10.995490 -18.420390 0.000000 -1.342915 0.000000 0.000000 0.000000 -0.000000 9.353499 -15.744699 11.038610 0.000000 30.543977 -0.000000 -14.386214 13.845631 18.838923 0.000000 -11.409014 -0.000000 -0.000000 -0.000000 -0.000000 -2.983665 14.117621 -9.905824 -0.000000 7.164029 0.000000 0.000000 -0.000000 -0.000000 4.136022 0.000000 -2.893125 51.196198 -29.333320 -2.275295 180.000037 -79.975496 -180.000037 15.346664 -6.867315 -45.026378 0.000000 0.000000 0.000000 -12.160659 0.000000 -10.950771 -41.338721 3.059454 -30.688945 -179.999832 -53.560205 -179.999629 -18.596924 -13.400436 -4.688757 -0.000000 -0.000000 -0.000000 0.000000 -0.000000 -0.000000 2.160391 -7.270335 39.919983 -0.000000 -0.000000 -0.000000 
0.887100 81.053100 -86.411600 -10.930770 -5.784397 -93.430757 -2.921745 -14.228737 2.234777 -0.000000 47.026176 -0.000000 8.271286 -8.857653 -16.417217 -0.000000 -0.813702 -0.000000 -0.000000 0.000000 0.000000 8.136240 -14.516911 9.022718 -0.000000 27.386679 -0.000000 -15.308052 13.139128 18.508259 -0.000000 -12.819183 -0.000000 -0.000000 -0.000000 -0.000000 -3.395508 13.825084 -11.061721 0.000000 7.975713 0.000000 -0.000000 -0.000000 0.000000 3.963161 0.000000 -2.401610 49.548116 -27.864355 -4.055428 180.000037 -79.152301 180.000037 15.772765 -7.172482 -44.007012 -0.000000 -0.000000 0.000000 -11.830115 -0.000000 -10.490011 -39.673877 3.020269 -29.819105 -179.999831 -53.641197 -179.999629 -17.719457 -13.152553 -4.931091 -0.000000 0.000000 -0.000000 -0.000000 -0.000000 0.000000 2.375781 -7.953702 39.621410 0.000000 0.000000 -0.000000 
2.294700 82.214500 -87.182100 -10.302462 -6.169221 -92.249108 -3.733641 -13.460812 -0.518047 -0.000000 42.756006 0.000000 8.170209 -5.911076 -15.102549 0.000000 -0.584750 0.000000 -0.000000 0.000000 0.000000 6.480072 -14.373593 9.030808 -0.000000 28.758132 0.000000 -15.719731 12.377016 18.537843 -0.000000 -14.256371 -0.000000 0.000000 0.000000 -0.000000 -3.665784 13.658059 -11.669723 -0.000000 7.926038 -0.000000 -0.000000 0.000000 0.000000 4.222790 0.000000 -2.890889 47.625039 -26.947195 -6.352490 -180.000037 -79.437926 180.000037 15.434460 -7.008295 -42.816532 -0.000000 -0.000000 0.000000 -11.336331 -0.000000 -11.160369 -38.510418 4.009003 -28.764548 -179.999831 -53.573824 -179.999629 -17.626369 -13.112754 -5.164409 -0.000000 -0.000000 -0.000000 -0.000000 0.000000 0.000000 2.539932 -7.811870 38.530409 -0.000000 0.000000 0.000000 
3.919400 83.303000 -87.723600 -8.982815 -6.270943 -92.246889 -3.254039 -13.782672 -0.065798 -0.000000 38.440408 -0.000000 8.271379 -2.497477 -15.823325 -0.000000 -0.541504 0.000000 -0.000000 0.000000 0.000000 5.177914 -15.145685 11.752795 0.000000 34.600595 0.000000 -14.494082 10.719667 18.697950 -0.000000 -14.989038 0.000000 -0.000000 0.000000 0.000000 -3.501805 12.667483 -10.808681 -0.000000 7.839890 -0.000000 -0.000000 0.000000 -0.000000 4.051168 -0.000000 -3.797637 46.342869 -26.561993 -8.083626 -180.000037 -80.023942 180.000037 14.279063 -6.536267 -43.427247 -0.000000 0.000000 -0.000000 -11.250653 -0.000000 -12.320343 -37.267575 5.260870 -28.136726 -179.999832 -53.547706 -179.999630 -17.613105 -12.938715 -5.641454 -0.000000 0.000000 -0.000000 -0.000000 0.000000 -0.000000 2.241387 -7.506443 37.163098 0.000000 -0.000000 -0.000000 
5.322900 84.135900 -88.148100 -8.318476 -6.045281 -92.572286 -2.328056 -13.363435 1.512580 0.000000 34.329774 -0.000000 8.734891 0.432074 -16.877067 -0.000000 -0.546948 -0.000000 -0.000000 0.000000 -0.000000 3.749243 -14.765218 14.094226 -0.000000 41.937080 -0.000000 -13.276163 8.920926 18.741638 -0.000000 -15.754699 -0.000000 -0.000000 0.000000 0.000000 -3.059575 12.044287 -10.811826 0.000000 8.033555 0.000000 0.000000 -0.000000 -0.000000 3.553875 0.000000 -3.591471 45.922634 -26.367303 -9.376998 -180.000037 -79.928265 -180.000037 14.097195 -5.494810 -43.264893 -0.000000 0.000000 -0.000000 -11.222051 0.000000 -12.469841 -36.467815 6.091934 -27.889471 -179.999830 -53.733938 -179.999628 -17.875951 -12.468891 -6.201905 0.000000 -0.000000 -0.000000 0.000000 -0.000000 -0.000000 1.967055 -7.476644 36.956745 -0.000000 0.000000 -0.000000 
6.617300 84.555300 -88.578000 -8.245529 -5.576647 -92.858269 -1.536895 -12.709941 2.065717 -0.000000 31.175561 -0.000000 8.895609 2.674697 -16.980343 -0.000000 -0.547531 0.000000 -0.000000 -0.000000 0.000000 2.065083 -13.103756 15.590957 -0.000000 48.393806 -0.000000 -13.448214 7.415785 18.004838 -0.000000 -16.323078 0.000000 -0.000000 0.000000 -0.000000 -2.549053 12.123363 -11.505308 -0.000000 8.069000 0.000000 -0.000000 -0.000000 -0.000000 3.460306 -0.000000 -2.995201 45.710670 -25.912602 -9.957371 180.000037 -79.317277 -180.000037 14.120339 -5.196901 -42.735597 -0.000000 0.000000 -0.000000 -10.904417 0.000000 -12.141794 -36.369768 6.422520 -27.696533 -179.999828 -54.060298 -179.999626 -17.969330 -12.349145 -6.321406 0.000000 0.000000 -0.000000 -0.000000 -0.000000 -0.000000 2.292756 -7.529328 37.536775 0.000000 0.000000 -0.000000 
8.043400 84.577900 -88.985100 -7.883772 -4.979268 -93.091560 -0.856939 -13.048665 1.525023 -0.000000 29.197057 -0.000000 8.819410 4.363662 -16.199940 0.000000 -0.435143 -0.000000 0.000000 -0.000000 0.000000 0.080683 -11.140371 16.401817 -0.000000 52.374902 -0.000000 -15.085406 6.327533 16.775159 -0.000000 -16.715088 -0.000000 -0.000000 -0.000000 0.000000 -1.923338 11.919553 -11.927378 0.000000 8.005175 0.000000 -0.000000 0.000000 -0.000000 3.531730 -0.000000 -2.897793 45.848959 -25.524650 -9.910744 180.000037 -78.836165 -180.000037 13.730021 -5.332200 -42.151436 0.000000 0.000000 -0.000000 -10.603352 0.000000 -12.093016 -36.383915 6.801977 -27.309564 -179.999827 -54.210398 -179.999625 -17.674635 -12.354842 -6.137527 0.000000 0.000000 -0.000000 -0.000000 0.000000 -0.000000 2.727426 -7.526089 37.706436 0.000000 0.000000 -0.000000 
9.598400 84.371800 -89.395700 -7.115558 -4.174142 -93.257076 0.006820 -14.388045 0.543973 -0.000000 28.180449 0.000000 8.593021 5.893589 -15.083892 0.000000 -0.175141 -0.000000 -0.000000 -0.000000 -0.000000 -2.080023 -8.795356 16.399708 -0.000000 52.049358 -0.000000 -16.905709 6.082215 14.883124 -0.000000 -17.067782 -0.000000 -0.000000 0.000000 -0.000000 -1.145505 11.189124 -12.173402 -0.000000 7.980896 -0.000000 0.000000 -0.000000 -0.000000 3.651692 -0.000000 -3.002602 45.954445 -25.519257 -9.818589 180.000037 -78.823912 -180.000037 13.752539 -5.307370 -41.999839 0.000000 -0.000000 0.000000 -10.307315 0.000000 -12.265096 -36.113603 7.190127 -26.740997 -179.999826 -54.243101 -179.999625 -17.303929 -12.324195 -5.820033 -0.000000 0.000000 -0.000000 0.000000 -0.000000 -0.000000 3.281408 -7.372420 37.685539 0.000000 -0.000000 -0.000000 
11.190400 84.076300 -89.966600 -6.378248 -3.151385 -92.897805 1.434545 -15.730253 0.152959 0.000000 27.301498 -0.000000 8.171315 7.408892 -15.198308 -0.000000 -0.115010 0.000000 -0.000000 -0.000000 -0.000000 -4.251932 -5.313609 14.995314 -0.000000 45.676237 0.000000 -18.154993 8.621618 13.862180 -0.000000 -26.446259 -0.000000 -0.000000 0.000000 -0.000000 -0.479497 10.397499 -13.118218 -0.000000 8.137107 -0.000000 -0.000000 -0.000000 -0.000000 4.037508 0.000000 -2.900232 45.943825 -25.588953 -9.607102 -180.000037 -79.096218 -180.000037 13.516506 -5.069409 -41.876366 0.000000 0.000000 -0.000000 -9.650498 0.000000 -12.305750 -35.636080 7.327551 -26.140284 -179.999826 -54.236052 -179.999625 -17.005936 -12.289893 -5.348208 0.000000 -0.000000 0.000000 -0.000000 -0.000000 -0.000000 4.423896 -7.337998 38.112747 0.000000 0.000000 -0.000000 
12.898000 83.739800 -90.699000 -5.607276 -2.089721 -91.769214 2.817338 -17.025729 -0.565353 0.000000 26.254800 -0.000000 8.254191 8.761089 -15.533143 -0.000000 -0.046003 -0.000000 -0.000000 -0.000000 0.000000 -5.817706 -1.443732 12.903719 -0.000000 35.699849 0.000000 -10.705345 1.742464 17.936430 0.000000 -22.579022 -0.000000 -0.000000 0.000000 -0.000000 -0.148619 9.598764 -14.796272 -0.000000 8.318322 0.000000 0.000000 -0.000000 0.000000 4.782334 -0.000000 -2.861661 45.944290 -25.521937 -9.368919 180.000037 -79.473880 -180.000037 13.483711 -4.916772 -41.649298 0.000000 0.000000 0.000000 -8.448531 -0.000000 -12.414197 -35.391616 7.218501 -25.539681 -179.999826 -54.257731 -179.999625 -16.696174 -12.147924 -5.468506 0.000000 0.000000 -0.000000 0.000000 -0.000000 0.000000 6.163115 -7.168075 38.530782 0.000000 0.000000 -0.000000 
